<svg width="41" height="41" viewBox="0 0 41 41" fill="none" xmlns="http://www.w3.org/2000/svg">
<path d="M3.80178 41C3.30252 41 2.80815 40.9016 2.3469 40.7105C1.88565 40.5193 1.46654 40.2391 1.11351 39.8859C0.760487 39.5327 0.48045 39.1134 0.289393 38.6519C0.0983359 38.1904 0 37.6958 0 37.1963V3.80539C0 2.79657 0.400543 1.82908 1.11351 1.11574C1.82649 0.402402 2.79348 0.00165205 3.80178 0.00165205H25.0872C25.4881 -0.0170171 25.8801 0.123142 26.1784 0.391747C26.4767 0.660353 26.6572 1.03576 26.6807 1.43659C26.6572 1.83743 26.4767 2.21284 26.1784 2.48144C25.8801 2.75005 25.4881 2.89021 25.0872 2.87154H4.46197C4.03329 2.87154 3.62217 3.04191 3.31905 3.34519C3.01593 3.64847 2.84564 4.0598 2.84564 4.48869V36.5357C2.84564 36.7481 2.88745 36.9584 2.96868 37.1546C3.04991 37.3508 3.16896 37.5291 3.31905 37.6792C3.46914 37.8294 3.64732 37.9485 3.84343 38.0298C4.03953 38.1111 4.24971 38.1529 4.46197 38.1529H36.5153C36.7275 38.1529 36.9377 38.1111 37.1338 38.0298C37.3299 37.9485 37.5081 37.8294 37.6582 37.6792C37.8083 37.5291 37.9273 37.3508 38.0086 37.1546C38.0898 36.9584 38.1316 36.7481 38.1316 36.5357V20.5919C38.1316 20.2114 38.2827 19.8464 38.5517 19.5773C38.8206 19.3082 39.1854 19.157 39.5658 19.157C39.9462 19.157 40.311 19.3082 40.5799 19.5773C40.8489 19.8464 41 20.2114 41 20.5919V37.1052C41 37.6047 40.9017 38.0993 40.7106 38.5608C40.5196 39.0223 40.2395 39.4416 39.8865 39.7948C39.5335 40.148 39.1144 40.4282 38.6531 40.6194C38.1918 40.8105 37.6975 40.9089 37.1982 40.9089L3.80178 41ZM9.8573 20.5008C9.71397 20.3701 9.59863 20.2117 9.51824 20.0351C9.43785 19.8585 9.39409 19.6675 9.3896 19.4735C9.38511 19.2795 9.41999 19.0867 9.49212 18.9066C9.56426 18.7264 9.67215 18.5628 9.80928 18.4256C9.94641 18.2884 10.1099 18.1805 10.2899 18.1083C10.47 18.0361 10.6627 18.0013 10.8566 18.0057C11.0505 18.0102 11.2414 18.054 11.4179 18.1344C11.5944 18.2149 11.7528 18.3303 11.8834 18.4737L17.8023 24.3957C17.8874 24.4791 18.0019 24.5259 18.121 24.5259C18.2402 24.5259 18.3546 24.4791 18.4398 24.3957L37.4486 5.37699C37.5793 5.23359 37.7376 5.11818 37.9141 5.03775C38.0906 4.95732 38.2815 4.91354 38.4754 4.90905C38.6693 4.90456 38.8621 4.93945 39.0421 5.01163C39.2221 5.0838 39.3856 5.19175 39.5228 5.32895C39.6599 5.46615 39.7678 5.62975 39.8399 5.80986C39.912 5.98996 39.9469 6.18284 39.9424 6.37682C39.938 6.5708 39.8942 6.76185 39.8138 6.93842C39.7334 7.115 39.6181 7.27343 39.4747 7.40413L18.5536 28.245C18.4962 28.3049 18.4273 28.3526 18.351 28.3852C18.2747 28.4178 18.1926 28.4346 18.1097 28.4346C18.0267 28.4346 17.9446 28.4178 17.8683 28.3852C17.792 28.3526 17.7231 28.3049 17.6657 28.245L9.8573 20.5008Z" fill="#54FF65"/>
</svg>
