<svg width="28" height="25" viewBox="0 0 28 25" fill="none" xmlns="http://www.w3.org/2000/svg">
<path d="M26.1795 8.31104V17.5585C26.1795 18.9381 25.0674 20.0669 23.7081 20.0669H11.055L6.96087 24.4732C6.6396 24.8161 6.21124 25 5.7664 25C5.56046 25 5.35452 24.9582 5.15681 24.8829C4.52251 24.6321 4.11886 24.0217 4.11886 23.3361V20.0753H2.47132C1.11209 20.0753 0 18.9465 0 17.5669V4.1806C0 2.801 1.11209 1.67224 2.47132 1.67224H19.8447C20.2977 1.67224 20.6684 2.0485 20.6684 2.50836C20.6684 2.96823 20.2977 3.34448 19.8447 3.34448H2.46308C2.01 3.34448 1.63931 3.72074 1.63931 4.1806V17.5585C1.63931 18.0184 2.01 18.3946 2.46308 18.3946H4.93439C5.38747 18.3946 5.75816 18.7709 5.75816 19.2308V23.3278L10.0994 18.6538C10.256 18.4866 10.4701 18.3946 10.7008 18.3946H23.7081C24.1612 18.3946 24.5319 18.0184 24.5319 17.5585V8.31104C24.5319 7.85117 24.9026 7.47492 25.3557 7.47492C25.8088 7.47492 26.1795 7.85117 26.1795 8.31104ZM11.4422 10.8696C11.4422 11.7893 12.1836 12.5418 13.0897 12.5418C13.9959 12.5418 14.7373 11.7893 14.7373 10.8696C14.7373 9.94983 13.9959 9.19732 13.0897 9.19732C12.1836 9.19732 11.4422 9.94983 11.4422 10.8696ZM4.85202 10.8696C4.85202 11.7893 5.59341 12.5418 6.49956 12.5418C7.40571 12.5418 8.1471 11.7893 8.1471 10.8696C8.1471 9.94983 7.40571 9.19732 6.49956 9.19732C5.59341 9.19732 4.85202 9.94983 4.85202 10.8696ZM18.0324 10.8696C18.0324 11.7893 18.7738 12.5418 19.6799 12.5418C20.5861 12.5418 21.3274 11.7893 21.3274 10.8696C21.3274 9.94983 20.5861 9.19732 19.6799 9.19732C18.7738 9.19732 18.0324 9.94983 18.0324 10.8696ZM28 3.34448C28 5.19231 26.5254 6.68896 24.7049 6.68896C22.8844 6.68896 21.4098 5.19231 21.4098 3.34448C21.4098 1.49666 22.8844 0 24.7049 0C26.5254 0 28 1.49666 28 3.34448ZM26.3525 3.34448C26.3525 2.42475 25.6111 1.67224 24.7049 1.67224C23.7988 1.67224 23.0574 2.42475 23.0574 3.34448C23.0574 4.26421 23.7988 5.01672 24.7049 5.01672C25.6111 5.01672 26.3525 4.26421 26.3525 3.34448Z" fill="#54FF65"/>
</svg>
